<svg width="454" height="127" viewBox="0 0 454 127" fill="none" xmlns="http://www.w3.org/2000/svg">
<g clip-path="url(#clip0_3_48)">
<path d="M52.6121 68.5073C46.4328 58.1382 42.8135 52.2889 41.5777 50.7823C38.7529 47.1486 35.2219 44.7558 30.7198 43.6923V43.2491C37.4287 43.0719 42.9018 41.388 47.0508 38.1975C51.1997 35.007 53.23 30.3985 53.23 24.4606C53.23 11.0782 44.4025 4.43127 26.5709 4.43127H0V8.15354C3.53101 8.24216 5.82617 8.77391 6.88548 9.92604C8.03306 11.0782 8.56271 13.2052 8.56271 16.3071V66.5576C8.56271 69.7481 8.03306 71.8751 6.88548 72.9386C5.7379 74.0907 3.44274 74.6225 0 74.7111V78.4334H27.1005V74.7111C23.8343 74.6225 21.6275 74.0021 20.4799 72.85C19.3323 71.6978 18.8026 69.6595 18.8026 66.7348V43.4264C21.9806 43.515 24.4523 44.224 26.3943 45.642C28.2481 47.06 30.2784 49.4529 32.4853 52.8207C34.6039 56.2771 39.1942 64.8737 46.168 78.522H62.0576V74.7997C59.4976 74.7111 57.6438 74.268 56.4079 73.2931C55.1721 72.3182 53.9362 70.723 52.6121 68.5073ZM26.6592 39.6155H18.7144V9.66016H27.1888C32.6619 9.66016 36.6343 10.7237 38.9294 12.8507C41.2246 14.9777 42.3722 18.8772 42.3722 24.5492C42.3722 30.044 41.048 33.8549 38.3115 36.1591C35.6632 38.4634 31.7791 39.6155 26.6592 39.6155Z" fill="#424242"/>
<path d="M89.2464 24.1061C82.0078 24.1061 76.1816 26.5876 71.5913 31.6392C67.0893 36.6909 64.7941 43.4264 64.7941 51.9344C64.7941 60.5311 67.0893 67.3552 71.6796 72.3182C76.2699 77.2812 82.1843 79.7627 89.5112 79.7627C96.838 79.7627 102.752 77.2812 107.343 72.4068C111.933 67.5325 114.228 60.8856 114.228 52.4662C114.228 44.1354 112.021 37.3112 107.608 31.9937C103.017 26.7648 97.0146 24.1061 89.2464 24.1061ZM100.104 68.9505C97.7208 72.6727 94.278 74.5338 89.6877 74.5338C84.5678 74.5338 80.8602 72.6727 78.6533 68.8618C76.4464 65.1396 75.2989 59.1131 75.2989 50.8709C75.2989 43.7809 76.3582 38.3747 78.4768 34.8297C80.5954 31.1961 84.2147 29.4236 89.2464 29.4236C98.7801 29.4236 103.635 37.3112 103.635 52.9979C103.635 59.9107 102.399 65.2282 100.104 68.9505Z" fill="#424242"/>
<path d="M154.747 72.4955C152.805 73.3817 150.333 73.8248 147.332 73.8248C142.212 73.8248 138.416 72.0523 136.032 68.596C133.649 65.1396 132.413 59.2017 132.413 50.7823C132.413 36.5136 137.003 29.335 146.096 29.335C148.92 29.335 151.039 30.044 152.275 31.462C153.599 32.88 154.482 35.1842 155.1 38.552H162.427V28.626C158.366 25.7899 152.981 24.4606 146.36 24.4606C139.122 24.4606 133.207 26.9421 128.705 31.9051C124.115 36.8681 121.82 43.8695 121.82 52.9093C121.82 61.5946 124.027 68.2414 128.529 72.85C133.031 77.4585 138.769 79.7627 145.743 79.7627C152.981 79.7627 159.16 76.8381 164.28 70.9002L161.456 67.8869C158.984 70.014 156.689 71.5206 154.747 72.4955Z" fill="#424242"/>
<path d="M214.421 68.4187L198.266 47.9463L208.153 38.1975C208.506 37.843 209.124 37.2226 209.919 36.425C210.713 35.6274 211.331 35.007 211.596 34.7411C211.949 34.4752 212.39 34.0321 213.097 33.3231C213.803 32.7027 214.244 32.2596 214.597 31.9937C214.95 31.8165 215.392 31.462 215.921 31.0188C216.451 30.5757 216.981 30.3098 217.422 30.1326C217.863 29.9553 218.305 29.7781 218.835 29.6895C219.364 29.5122 219.894 29.4236 220.423 29.335V25.7013H200.297V29.335C202.768 29.5122 204.357 30.044 204.887 31.0188C205.417 31.9937 204.887 33.4117 203.21 35.1842L188.556 50.2505L210.978 78.4334H223.954V74.7997C220.6 74.5338 217.51 72.4068 214.421 68.4187Z" fill="#424242"/>
<path d="M187.497 68.0642V10.635C187.497 6.11514 187.055 2.57013 186.173 0H184.584L169.577 3.10188V6.55827C172.843 6.73552 175.05 7.3559 176.109 8.4194C177.169 9.4829 177.698 11.9644 177.698 15.7753V67.3552C177.698 70.3685 177.257 72.3182 176.286 73.2045C175.315 74.0907 173.284 74.6225 170.195 74.8883V78.522H194.912V74.8883C191.646 74.7111 189.527 74.268 188.733 73.4703C187.938 72.5841 187.497 70.8116 187.497 68.0642Z" fill="#424242"/>
<path d="M251.496 47.4145L245.141 45.9079C241.963 45.1989 239.667 44.1354 238.432 42.806C237.196 41.4766 236.578 39.7041 236.578 37.3999C236.578 34.8297 237.461 32.7913 239.138 31.2847C240.815 29.7781 243.287 29.0691 246.465 29.0691C252.114 29.0691 255.469 31.9051 256.528 37.5771H263.414V28.0056C258.382 25.5241 253.085 24.2833 247.347 24.2833C241.963 24.2833 237.549 25.6127 233.93 28.3601C230.399 31.1075 228.545 34.9184 228.545 39.7927C228.545 47.5918 233.047 52.5548 242.139 54.7704L248.495 56.277C251.761 57.0747 254.145 58.1382 255.557 59.4675C256.969 60.7969 257.676 62.8353 257.676 65.6713C257.676 71.8751 253.968 75.0656 246.641 75.0656C242.845 75.0656 240.109 74.3566 238.343 72.85C236.578 71.3433 235.519 68.7732 235.165 65.1396H228.015V75.3315C232.782 78.3447 238.696 79.8514 245.67 79.8514C251.938 79.8514 256.969 78.2561 260.589 74.977C264.296 71.7865 266.15 67.4438 266.15 62.0377C266.15 58.1382 265.003 55.0363 262.619 52.732C260.324 50.4278 256.528 48.6553 251.496 47.4145Z" fill="#424242"/>
<path d="M296.164 74.4452C293.427 74.4452 291.662 73.7362 290.691 72.4068C289.72 71.0775 289.278 68.2415 289.278 64.1647V31.6392H300.666L302.166 25.7013H289.455C289.455 19.5862 289.808 14.2687 290.426 9.57153L285.394 10.9009C283.276 14.3573 281.598 19.3203 280.362 25.79L273.212 28.2715V31.7278H279.656V65.5827C279.656 70.723 280.804 74.4452 283.011 76.7495C285.218 78.9651 288.395 80.1172 292.633 80.1172C296.164 80.1172 299.695 79.1424 303.226 77.2812L302.343 73.3817C300.136 74.0907 298.106 74.4452 296.164 74.4452Z" fill="#424242"/>
<path d="M348.776 68.7732C344.186 71.7865 339.419 73.2931 334.563 73.2931C328.737 73.2931 324.588 71.7865 321.852 68.6846C319.204 65.5827 317.791 60.2652 317.703 52.6434H351.865V49.7188C351.865 41.5653 350.012 35.1842 346.216 30.753C342.508 26.2331 337.212 24.0175 330.415 24.0175C323.617 24.0175 318.056 26.499 313.819 31.462C309.493 36.425 307.375 43.1605 307.375 51.7572C307.375 60.6197 309.493 67.4438 313.819 72.3182C318.144 77.1926 324.147 79.6741 331.915 79.6741C338.359 79.6741 344.715 77.2812 350.983 72.3182L348.776 68.7732ZM321.41 33.3231C323.441 30.5757 326.354 29.1577 330.238 29.1577C334.299 29.1577 337.212 30.5757 339.066 33.3231C340.831 36.1591 341.714 40.7676 341.714 47.3259H317.791C318.144 40.7676 319.38 36.0705 321.41 33.3231Z" fill="#424242"/>
<path d="M375.7 67.3552V48.478C375.7 43.2491 376.583 39.6155 378.26 37.5771C379.937 35.5387 383.027 34.5639 387.352 34.5639C388.676 34.5639 389.824 34.7411 390.707 35.0956L393.09 24.4606C392.119 24.1061 391.06 23.9288 389.912 23.9288C384.88 23.9288 380.025 28.0942 375.347 36.5136C375.347 31.2847 374.729 27.208 373.493 24.2833H371.904L358.221 28.626V31.8165C361.399 31.9937 363.518 32.6141 364.577 33.6776C365.548 34.7411 366.078 37.2226 366.078 41.0335V67.3552C366.078 70.3685 365.636 72.3182 364.665 73.2045C363.694 74.0907 361.664 74.6225 358.574 74.8884V78.522H384.969V74.8884C380.996 74.7111 378.436 74.268 377.377 73.2931C376.229 72.4068 375.7 70.4571 375.7 67.3552Z" fill="#424242"/>
<path d="M404.919 40.9449V67.3552C404.919 70.3685 404.478 72.3182 403.507 73.2045C402.535 74.0907 400.505 74.6225 397.416 74.8883V78.522H422.133V74.8883C418.866 74.7111 416.748 74.268 415.953 73.4703C415.071 72.6727 414.629 70.9002 414.629 68.1528V38.7292C419.308 34.2094 424.163 31.9937 429.459 31.9937C434.668 31.9937 437.316 34.9184 437.316 40.8562V68.1528C437.316 70.9002 436.875 72.6727 435.992 73.4703C435.109 74.268 433.079 74.7997 429.813 74.8883V78.522H454V74.8883C451.087 74.7111 449.145 74.0907 448.35 73.2045C447.468 72.3182 447.026 70.3685 447.026 67.3552V38.8179C447.026 34.2094 445.702 30.6643 443.054 28.1828C440.406 25.7013 436.875 24.4606 432.549 24.4606C426.193 24.4606 420.102 27.5625 414.188 33.6776C414.1 29.9553 413.482 26.8535 412.334 24.2833H410.745L397.062 28.626V31.8165C400.24 31.9937 402.359 32.6141 403.418 33.6776C404.478 34.7411 404.919 37.2226 404.919 40.9449Z" fill="#424242"/>
<path d="M276.743 106.262C279.215 106.262 281.333 107.148 283.099 109.098L285.924 106.439C283.717 103.869 280.362 102.451 276.478 102.451C269.151 102.451 263.678 107.591 263.678 114.77C263.678 121.948 269.151 127.089 276.39 127.089C280.274 127.089 283.629 125.671 285.835 123.1L283.011 120.353C281.245 122.303 279.127 123.189 276.655 123.189C271.711 123.189 268.18 119.733 268.18 114.77C268.18 109.718 271.8 106.262 276.743 106.262Z" fill="#424242"/>
<path d="M304.02 102.717L293.251 126.645H297.841L300.224 121.062H312.142L314.525 126.645H319.115L308.346 102.717H304.02ZM301.725 117.606L306.227 107.148L310.729 117.606H301.725Z" fill="#424242"/>
<path d="M339.154 102.717H329.355V126.645H333.769V119.733H339.154C345.421 119.733 349.305 116.454 349.305 111.225C349.305 105.907 345.421 102.717 339.154 102.717ZM338.977 115.922H333.769V106.439H338.977C342.861 106.439 344.892 108.211 344.892 111.225C344.803 114.238 342.861 115.922 338.977 115.922Z" fill="#424242"/>
<path d="M365.636 102.717H361.223V126.645H365.636V102.717Z" fill="#424242"/>
<path d="M376.141 106.439H383.998V126.645H388.5V106.439H396.356V102.717H376.141V106.439Z" fill="#424242"/>
<path d="M411.804 102.717L401.035 126.645H405.625L408.009 121.062H419.926L422.309 126.645H426.9L416.13 102.717H411.804ZM409.509 117.606L414.011 107.148L418.513 117.606H409.509Z" fill="#424242"/>
<path d="M441.553 122.835V102.717H437.139V126.645H454V122.835H441.553Z" fill="#424242"/>
</g>
<defs>
<clipPath id="clip0_3_48">
<rect width="454" height="127" fill="white"/>
</clipPath>
</defs>
</svg>
